<?xml version="1.0" encoding="UTF-8"?>
<!-- Created with Inkscape (http://www.inkscape.org/) -->
<svg width="26.171mm" height="26.252mm" version="1.1" viewBox="0 0 26.171 26.252" xml:space="preserve" xmlns="http://www.w3.org/2000/svg"><g transform="translate(-26.305 -229.14)"><path d="m30.824 252.17c-0.36217-0.24141-1.0921-0.9697-1.5809-1.5774-1.5471-1.9234-2.5228-4.2495-2.8586-6.8148-0.10702-0.81766-0.10599-2.4522 0.0021-3.2586 0.41266-3.0801 1.7065-5.6346 3.8368-7.5748 0.65725-0.59865 1.2686-0.80543 2.516-0.85099 0.81014-0.0296 1.372 0.0446 1.9584 0.25862 0.72559 0.26481 1.0273 0.50514 1.4458 1.1516 0.89987 1.3901 2.4152 4.3648 2.4152 4.7411 0 0.32059-7.2359 14.12-7.404 14.12-0.02096 0-0.16982-0.0878-0.33085-0.19515z" fill="#1969a4"/><path d="m49.095 250.01c-0.47306-0.98792-1.41-3.1209-3.107-7.0731-2.2785-5.3066-2.9919-6.9049-3.8293-8.5797-0.92886-1.8577-1.4456-2.6588-2.1958-3.4043-0.58014-0.57648-0.88407-0.77522-1.9219-1.2567-0.37292-0.17302-0.68863-0.32518-0.70159-0.33814-0.01297-0.013 0.31186-0.0709 0.72181-0.12866 3.1161-0.43943 7.0875 0.78763 9.7211 3.0035 1.3773 1.1588 2.5084 2.6068 3.3124 4.2404 0.69934 1.4209 1.0964 2.717 1.3176 4.3014 0.09351 0.66966 0.08047 2.5982-0.02225 3.2893-0.20343 1.3686-0.55254 2.509-1.1549 3.7723-0.62842 1.3181-1.5804 2.8292-1.7825 2.8292-0.02418 0-0.18523-0.295-0.35788-0.65555z" fill="#6aa7ea"/><path d="m38.125 255.39c-1.0391-0.0892-1.9934-0.29157-2.4418-0.5179-0.23136-0.11677-0.24981-0.15259-0.17992-0.34936 0.28303-0.79689 4.0644-8.8379 4.9444-10.514 0.1315-0.25048 0.25919-0.45541 0.28376-0.45541 0.07343 0 0.2667 0.31965 0.6097 1.0084 0.45839 0.92047 0.71866 1.514 2.1201 4.8343 0.68255 1.6171 1.4015 3.3188 1.5976 3.7814 0.19612 0.46263 0.35181 0.84592 0.34597 0.85176-0.0058 6e-3 -0.2519 0.13314-0.54679 0.28289-0.99341 0.50446-2.1395 0.81562-3.6934 1.0028-0.47578 0.0573-0.79717 0.0719-1.7385 0.0791-0.63514 5e-3 -1.2207 3e-3 -1.3012-4e-3z" fill="#3888d1"/></g></svg>
