<?xml version="1.0" encoding="UTF-8"?>
<!-- Created with Inkscape (http://www.inkscape.org/) -->
<svg width="475.8" height="507.99" version="1.1" viewBox="0 0 475.8 507.99" xmlns="http://www.w3.org/2000/svg">
 <g transform="matrix(1.3333 0 0 -1.3333 -.49531 508.18)">
  <g transform="scale(.1)">
   <path d="m3235.7 1476.4-685.18 1139.1 675.82 1195.7-371.34 0.13-672.59-1198.1 687.43-1137 365.86 0.21" fill="#231f20"/>
   <path d="m2183.3 2454 545.06-898.21h-1045.6z" fill="#ed1c24"/>
   <g fill="#231f20">
    <path d="m1996.6 2918.5-627.57-1121-1365.4-0.97 173.52-318.65 1374-0.27 632.2 1134.5-186.8 306.37"/>
    <path d="m1376.9 1164.1 1307.2 0.17 700.91-1162.8 187.17 316.34-702.7 1159.9h-1318.1l-174.51-313.54"/>
    <g fill-rule="evenodd">
     <path d="m1181.4 2504.8 251.15-448.41-108.77-182.87-218.96 2.86-249.64 445.71 326.22 182.71"/>
     <path d="m3257.6 2437.4-513.97 0.4-106.24 184.35 109.63 189.56 510.87-0.4-0.29-373.91"/>
     <path d="m2177 636.27 250.43 448.83 212.74 3.12 112.27-188.01-248.92-446.12-326.52 182.19"/>
    </g>
   </g>
  </g>
 </g>
</svg>
